<svg xmlns="http://www.w3.org/2000/svg" viewBox="0 0 674.13 317.93"><g id="Layer_2" data-name="Layer 2"><g id="logo"><path d="M139.74,312.14V264.21H0V222.43L139.74,6.21h43v218.7H215v39.3H182.72v47.93Zm0-234.41h-.83L49.6,224.91h90.14Z"/><path d="M438.35,220c0,67-55.82,98-99.65,98-45.88,0-98.39-33.49-98.39-102.11V102.12C240.31,37.21,289.51,0,340.37,0c55.8,0,98,45.08,98,99.22Zm-43-120.74c0-30.58-17.35-59.93-55.81-59.93-36,0-56.22,27.28-56.22,59.93V213.75c0,35.14,18.6,64.9,56.22,64.9,27.3,0,55.81-21.48,55.81-56.64Z"/><path d="M598.89,312.14V264.21H459.15V222.43L598.89,6.21h43v218.7h32.25v39.3H641.88v47.93Zm0-234.41h-.83l-89.3,147.18h90.13Z"/></g></g></svg>