<?xml version="1.0" encoding="utf-8"?>
<!-- Generator: Adobe Illustrator 24.1.1, SVG Export Plug-In . SVG Version: 6.00 Build 0)  -->
<svg version="1.1" id="logo" xmlns="http://www.w3.org/2000/svg" xmlns:xlink="http://www.w3.org/1999/xlink" x="0px" y="0px"
	 viewBox="0 0 83 52" style="enable-background:new 0 0 83 52;" xml:space="preserve">
<g>
	<path id="R" d="M24.4,51L7.9,27.8H7.8V51H0.5V1h16c12,0,17.4,6.4,17.4,16.6c0,9.5-7.3,14.5-14.3,14.7l14,18.6H24.4z M13.1,26.8
		c8.5,0,13.4-3.3,13.4-9.8c0-5.7-4.6-9.3-11.1-9.3H7.8v19.1H13.1z"/>
	<path id="G" d="M53.3,32.6v-6.4h29c-0.4,16-12,24.9-24.2,24.9c-12.4,0-23-11.3-23-24.3C35.2,11,46.6,1,58.2,1c8.8,0,16.4,4.4,21,13
		h-7.8c-3.9-4.7-7.8-6.6-12.9-6.6c-8.9,0-16.6,8.9-16.6,18.4c0,10.2,7.6,18.7,16.9,18.7c7.3,0,13.1-4.2,16-12H53.3z"/>
</g>
</svg>
